<svg xmlns="http://www.w3.org/2000/svg" xmlns:xlink="http://www.w3.org/1999/xlink" viewBox="0 0 64 88" width="64"
    height="88" preserveAspectRatio="xMidYMid meet"
    style="width: 100%; height: 100%; transform: translate3d(0px, 0px, 0px); content-visibility: visible;">
    <defs>
        <clipPath id="__lottie_element_18">
            <rect width="64" height="88" x="0" y="0"></rect>
        </clipPath>
        <clipPath id="__lottie_element_20">
            <path fill="#ffffff" clip-rule="nonzero"
                d=" M12.875,-65.68800354003906 C12.875,-65.68800354003906 13,-49 13,-49 C13,-49 55.25,-49 55.25,-49 C55.25,-49 55.125,-65.68800354003906 55.125,-65.68800354003906 C55.125,-65.68800354003906 12.875,-65.68800354003906 12.875,-65.68800354003906"
                fill-opacity="1"></path>
        </clipPath>
    </defs>
    <g clip-path="url(#__lottie_element_18)">
        <g clip-path="url(#__lottie_element_20)" transform="matrix(-1,0,0,-1,84,22.375)" opacity="1"
            style="display: block;">
            <g opacity="1" transform="matrix(1,0,0,1,0,0.625)">
                <path stroke-linecap="round" stroke-linejoin="round" fill-opacity="0" stroke="rgb(17,17,17)"
                    stroke-opacity="1" stroke-width="4"
                    d=" M22.375,-52.25 C22.375,-52.25 34,-63.75 34,-63.75 C34,-63.75 45.75,-52.125 45.75,-52.125">
                </path>
            </g>
        </g>
        <g transform="matrix(1,0,0,1,-22,23.5)" opacity="1" style="display: block;">
            <g opacity="1" transform="matrix(1,0,0,1,0,0)">
                <path stroke-linecap="round" stroke-linejoin="round" fill-opacity="0" stroke="rgb(17,17,17)"
                    stroke-opacity="1" stroke-width="4"
                    d=" M24.75,-20.687999725341797 C24.75,-9.187999725341797 30.937999725341797,31.5 43.3129997253418,31.5 C53.4379997253418,31.5 49.875,7.25 61.875,7.25 C71.375,7.25 71.75,16.25 71.75,58.5">
                </path>
            </g>
        </g>
    </g>
</svg>